<svg width="50" height="50" viewBox="0 0 50 50" fill="none" xmlns="http://www.w3.org/2000/svg">
<path d="M42.5 0H7.5C5.51088 0 3.60322 0.790166 2.1967 2.19667C0.790177 3.60317 0 5.5108 0 7.4999V32.4995C0 34.4886 0.790177 36.3963 2.1967 37.8028C3.60322 39.2093 5.51088 39.9994 7.5 39.9994H36.475L45.725 49.2743C45.9586 49.506 46.2356 49.6893 46.5402 49.8137C46.8448 49.9381 47.171 50.0012 47.5 49.9993C47.8279 50.0078 48.1533 49.9393 48.45 49.7993C48.9065 49.6118 49.2974 49.2933 49.5732 48.884C49.849 48.4747 49.9975 47.9929 50 47.4993V7.4999C50 5.5108 49.2098 3.60317 47.8033 2.19667C46.3968 0.790166 44.4891 0 42.5 0ZM45 41.4744L39.275 35.7245C39.0414 35.4928 38.7644 35.3095 38.4598 35.1851C38.1552 35.0607 37.829 34.9976 37.5 34.9995H7.5C6.83696 34.9995 6.20107 34.7361 5.73223 34.2673C5.26339 33.7985 5 33.1626 5 32.4995V7.4999C5 6.83686 5.26339 6.20099 5.73223 5.73215C6.20107 5.26332 6.83696 4.99993 7.5 4.99993H42.5C43.163 4.99993 43.7989 5.26332 44.2678 5.73215C44.7366 6.20099 45 6.83686 45 7.4999V41.4744ZM25 24.9997C24.5055 24.9997 24.0222 25.1463 23.6111 25.421C23.2 25.6957 22.8795 26.0861 22.6903 26.5429C22.5011 26.9997 22.4516 27.5024 22.548 27.9873C22.6445 28.4723 22.8826 28.9177 23.2322 29.2674C23.5819 29.617 24.0273 29.8551 24.5123 29.9515C24.9972 30.048 25.4999 29.9985 25.9567 29.8093C26.4135 29.6201 26.804 29.2996 27.0787 28.8885C27.3534 28.4774 27.5 27.9941 27.5 27.4996C27.5 26.8366 27.2366 26.2007 26.7678 25.7319C26.2989 25.263 25.663 24.9997 25 24.9997ZM25 9.99986C24.337 9.99986 23.7011 10.2632 23.2322 10.7321C22.7634 11.2009 22.5 11.8368 22.5 12.4998V19.9997C22.5 20.6628 22.7634 21.2986 23.2322 21.7675C23.7011 22.2363 24.337 22.4997 25 22.4997C25.663 22.4997 26.2989 22.2363 26.7678 21.7675C27.2366 21.2986 27.5 20.6628 27.5 19.9997V12.4998C27.5 11.8368 27.2366 11.2009 26.7678 10.7321C26.2989 10.2632 25.663 9.99986 25 9.99986Z" fill="white"/>
</svg>
