<?xml version="1.0" standalone="no"?>
<!DOCTYPE svg PUBLIC "-//W3C//DTD SVG 20010904//EN"
 "http://www.w3.org/TR/2001/REC-SVG-20010904/DTD/svg10.dtd">
<svg version="1.0" xmlns="http://www.w3.org/2000/svg"
 width="256.000000pt" height="256.000000pt" viewBox="0 0 256.000000 256.000000"
 preserveAspectRatio="xMidYMid meet">
<metadata>
Created by potrace 1.11, written by Peter Selinger 2001-2013
</metadata>
<g transform="translate(0.000000,256.000000) scale(0.100000,-0.100000)"
fill="#000000" stroke="none">
<path d="M1326 2525 c-28 -26 -52 -73 -60 -121 -15 -84 -28 -130 -68 -237 -35
-95 -50 -122 -73 -137 -33 -22 -41 -57 -12 -52 9 2 17 -2 17 -8 0 -5 -5 -10
-11 -10 -5 0 -8 -4 -5 -9 3 -5 -8 -14 -24 -21 -17 -7 -38 -26 -47 -41 -10 -16
-20 -29 -24 -29 -11 0 -30 -91 -34 -157 -6 -92 -24 -122 -124 -202 -50 -40
-111 -95 -137 -124 -53 -59 -174 -236 -174 -254 0 -7 -4 -13 -8 -13 -12 0 -72
-133 -79 -173 -11 -63 -12 -206 -1 -243 5 -22 17 -43 24 -47 8 -5 12 -12 9
-18 -6 -8 11 -13 43 -12 10 1 10 -2 1 -13 -9 -11 -9 -14 0 -14 7 0 9 -5 5 -12
-5 -9 -2 -9 9 1 9 7 17 10 17 5 0 -4 5 -3 12 4 8 8 8 15 -1 26 -9 11 -9 16 0
22 7 4 9 3 5 -4 -4 -6 4 -16 16 -23 22 -12 22 -11 8 6 -14 17 -14 18 10 5 24
-13 25 -12 7 7 -14 16 -14 20 -2 20 8 0 12 -4 9 -9 -3 -4 -1 -8 4 -8 4 0 16
-15 25 -34 14 -30 14 -40 2 -85 -7 -28 -13 -54 -13 -56 0 -3 -3 -23 -7 -45 -8
-45 1 -83 17 -74 8 5 9 1 5 -10 -5 -14 -3 -17 8 -12 8 3 16 1 16 -4 2 -16 2
-16 32 -95 7 -16 11 -34 9 -38 -1 -5 2 -6 8 -2 5 3 13 -1 16 -9 3 -9 12 -16
19 -16 18 0 47 -29 40 -40 -3 -4 4 -6 15 -3 11 3 17 10 13 17 -4 6 1 5 10 -3
17 -14 24 -26 9 -17 -4 2 -14 0 -22 -6 -13 -8 -12 -9 1 -5 9 3 22 0 29 -6 7
-7 10 -7 7 -2 -3 6 1 19 9 30 8 10 14 13 14 6 0 -7 5 -9 10 -6 6 4 8 10 6 14
-3 4 1 8 9 8 19 0 19 -2 -1 -22 -9 -9 -13 -19 -9 -23 3 -4 11 1 16 10 6 10 16
15 27 12 14 -5 14 -4 3 4 -13 9 -13 13 0 28 13 15 12 16 -11 9 -14 -4 -23 -6
-20 -4 3 2 15 12 26 22 21 18 21 17 18 -13 -2 -16 1 -30 6 -30 6 0 9 3 9 8 -4
25 2 42 14 36 8 -5 8 -2 -2 9 -7 9 -10 17 -5 17 5 0 2 5 -6 11 -13 9 -13 10 0
6 8 -2 21 3 28 12 8 9 11 11 8 4 -5 -10 12 -11 34 -3 3 1 9 2 13 1 5 -1 6 3 2
9 -5 8 -11 7 -21 -1 -8 -7 -14 -7 -14 -1 0 5 7 13 16 16 8 3 12 11 8 17 -4 8
-3 9 5 5 6 -4 9 -12 6 -17 -4 -5 -1 -9 5 -9 7 0 9 8 5 21 -5 16 -4 19 5 14 9
-6 11 -4 6 4 -5 7 -14 10 -22 7 -22 -8 -17 2 7 15 17 9 20 8 13 -3 -6 -11 -5
-11 9 1 17 13 24 26 10 18 -5 -3 -17 0 -28 4 -18 9 -18 9 2 5 13 -2 26 0 29 5
4 6 11 6 19 -1 10 -8 16 -7 25 7 8 13 10 14 7 2 -3 -9 -1 -22 4 -30 7 -11 9
-11 9 3 0 33 15 26 16 -8 3 -79 4 -84 20 -84 8 0 12 -4 9 -10 -3 -5 0 -7 8 -4
10 3 18 -8 27 -40 7 -25 19 -51 26 -57 8 -6 11 -16 7 -23 -3 -6 -3 -8 2 -4 10
10 37 -11 30 -23 -3 -4 3 -6 15 -4 11 2 22 -1 25 -6 4 -5 11 -6 17 -3 7 4 8 2
4 -4 -4 -6 -14 -9 -24 -6 -14 5 -14 4 -3 -4 8 -6 21 -8 29 -4 11 4 13 1 7 -8
-5 -8 -4 -11 3 -6 5 3 12 3 15 -1 2 -5 3 -3 1 3 -1 6 7 16 17 22 12 8 19 8 19
2 0 -5 -4 -10 -10 -10 -5 0 -10 -4 -10 -8 0 -4 9 -8 20 -8 14 0 19 5 15 15 -5
13 -3 13 12 0 10 -9 27 -14 37 -11 14 3 15 6 6 12 -10 6 -10 12 0 26 10 16 11
16 6 2 -7 -25 11 -23 24 2 6 11 15 18 20 15 5 -3 12 0 16 6 4 7 3 9 -3 6 -6
-4 -13 -1 -16 7 -4 11 1 13 21 10 15 -2 22 -1 16 3 -6 5 -14 17 -17 28 -7 20
-7 20 8 1 19 -25 19 -13 1 22 -13 25 -13 28 4 28 14 0 16 -4 9 -12 -7 -8 -6
-15 3 -20 7 -4 10 -3 5 1 -4 5 0 16 9 26 12 13 12 19 3 25 -8 5 -10 3 -4 -6 5
-9 4 -11 -4 -6 -21 13 -1 27 22 14 20 -10 21 -10 9 5 -8 9 -11 21 -7 27 13 21
14 54 2 69 -6 9 -1 7 12 -4 14 -11 21 -14 16 -6 -4 8 -2 17 6 23 11 7 10 8 -5
6 -10 -2 -21 3 -23 10 -3 8 1 10 14 5 10 -3 15 -3 11 2 -4 4 -2 15 5 23 9 13
9 14 0 8 -7 -4 -13 -3 -13 3 0 5 -3 18 -6 28 -6 16 -5 16 10 -2 11 -13 16 -15
13 -5 -7 23 12 52 29 46 12 -4 14 -1 9 14 -5 16 -3 19 12 14 10 -3 5 3 -10 14
-23 16 -26 20 -12 26 9 3 14 2 11 -3 -9 -13 19 -21 35 -9 11 7 9 8 -6 3 -11
-3 -16 -3 -12 1 4 4 1 14 -6 22 -8 11 -8 14 0 9 6 -4 13 -1 16 5 3 10 7 10 20
0 13 -11 15 -10 12 5 -1 10 4 28 11 41 13 20 11 26 -9 23 -5 -1 -6 3 -2 9 3 5
0 10 -7 11 -7 0 -3 5 10 11 12 6 22 19 22 29 0 10 5 21 11 25 8 4 9 -1 5 -17
-6 -21 -5 -21 4 -6 6 9 16 15 21 11 6 -3 13 3 16 15 3 11 9 18 14 15 5 -3 6
-11 2 -17 -5 -8 -2 -8 9 0 8 7 18 9 22 5 4 -4 6 0 4 8 -2 8 3 14 10 12 8 -1
11 2 7 8 -5 8 -11 7 -21 -1 -10 -8 -14 -8 -14 0 0 11 13 15 37 12 6 -1 15 4
19 10 4 7 3 9 -4 5 -6 -3 -13 -2 -16 3 -9 14 31 20 45 7 9 -8 10 -8 3 4 -13
23 -16 52 -3 45 6 -4 3 7 -6 25 -9 18 -12 29 -7 26 6 -3 13 1 16 10 4 11 2 15
-7 11 -9 -3 -13 4 -13 23 0 16 3 27 7 24 10 -6 5 24 -6 33 -4 4 -5 2 0 -6 5
-9 4 -12 -3 -7 -6 4 -8 14 -5 23 5 12 3 14 -8 8 -9 -6 -7 1 5 20 15 22 15 27
3 17 -13 -11 -17 -10 -27 7 -9 18 -8 20 7 15 13 -4 12 0 -4 12 -13 9 -23 25
-23 36 0 10 -4 17 -8 14 -5 -3 -9 0 -9 7 -1 17 -7 41 -13 47 -15 15 -50 71
-50 80 0 5 -4 10 -10 10 -5 0 -10 5 -10 11 0 5 5 7 12 3 7 -4 8 -3 4 4 -4 7
-14 12 -22 12 -8 0 -14 7 -14 15 0 8 -4 15 -10 15 -5 0 -10 5 -10 10 0 6 -8
18 -17 28 -37 38 -63 72 -63 82 0 6 -8 10 -17 10 -9 0 -14 3 -10 6 3 3 -5 17
-19 31 -13 13 -22 28 -19 33 3 5 0 12 -6 16 -8 5 -9 3 -4 -6 5 -9 4 -11 -3 -6
-13 8 -37 84 -33 105 1 7 -2 11 -7 7 -5 -3 -9 1 -9 8 0 8 6 12 13 9 14 -5 13
22 -1 34 -4 4 -5 2 0 -6 5 -9 4 -12 -3 -7 -7 4 -8 16 -4 29 4 12 7 29 6 37 -1
8 -2 21 -3 28 0 7 -5 10 -11 7 -5 -3 -10 1 -10 10 0 12 6 15 23 11 l22 -6 -22
11 c-12 6 -24 18 -27 26 -3 8 -2 11 3 8 5 -3 12 -1 15 4 3 5 -1 11 -9 15 -8 3
-15 13 -15 21 0 10 5 13 13 9 9 -6 9 -5 0 8 -7 8 -10 18 -6 21 3 4 0 14 -8 24
-12 15 -12 16 2 11 9 -4 16 -1 16 8 0 7 -5 10 -11 7 -6 -4 -4 2 4 12 8 10 10
16 3 12 -6 -4 -15 -2 -19 4 -4 7 -3 9 3 6 6 -4 17 1 24 10 10 12 10 14 2 9 -7
-4 -14 -2 -14 3 -2 14 -6 30 -9 34 -1 1 -3 10 -5 20 -3 14 0 16 10 7 8 -6 12
-19 10 -29 -2 -10 3 -18 11 -18 8 0 10 4 5 11 -5 6 -7 28 -6 49 2 20 -1 37 -5
37 -5 0 -7 -9 -5 -21 3 -17 2 -19 -10 -9 -8 7 -12 17 -8 24 12 18 12 35 2 42
-6 3 -5 12 2 21 10 12 10 17 -2 25 -12 8 -12 9 1 5 9 -2 15 -15 14 -31 -1 -14
1 -24 5 -21 3 4 6 19 7 35 1 20 -4 30 -18 33 -12 3 -16 11 -12 21 5 13 10 13
27 5 l22 -12 -20 20 c-11 11 -22 19 -25 17 -3 -1 -6 6 -6 16 0 14 3 16 13 8
10 -8 12 -7 7 6 -3 9 -10 16 -15 16 -5 0 -8 3 -8 8 1 4 0 9 -1 12 -8 21 -7 47
2 64 10 19 10 20 -5 7 -15 -12 -17 -11 -17 8 0 14 4 20 12 15 7 -4 8 -3 4 5
-4 6 -11 9 -15 7 -4 -3 -16 11 -26 30 -35 65 -111 84 -159 39z m244 -799 c0
-3 -4 -8 -10 -11 -5 -3 -10 -1 -10 4 0 6 5 11 10 11 6 0 10 -2 10 -4z m388
-927 c-3 -8 -7 -3 -11 10 -4 17 -3 21 5 13 5 -5 8 -16 6 -23z m-138 -73 c0 -2
-8 -10 -17 -17 -16 -13 -17 -12 -4 4 13 16 21 21 21 13z m37 -11 c0 -8 -4 -12
-9 -9 -5 3 -6 10 -3 15 9 13 12 11 12 -6z m-73 -117 c-9 -9 -13 -22 -8 -29 4
-8 3 -10 -5 -5 -7 5 -9 16 -5 28 4 15 3 18 -6 13 -8 -5 -11 -4 -7 1 3 5 15 10
26 10 18 0 19 -2 5 -18z m-1210 4 c3 -5 -1 -9 -9 -9 -8 0 -12 4 -9 9 3 4 7 8
9 8 2 0 6 -4 9 -8z m1107 -145 c-10 -9 -11 -8 -5 6 3 10 9 15 12 12 3 -3 0
-11 -7 -18z m-16 -77 c3 -5 1 -10 -4 -10 -6 0 -11 5 -11 10 0 6 2 10 4 10 3 0
8 -4 11 -10z"/>
<path d="M1530 2366 c0 -2 7 -7 16 -10 8 -3 12 -2 9 4 -6 10 -25 14 -25 6z"/>
<path d="M1556 1913 c-6 -14 -5 -15 5 -6 7 7 10 15 7 18 -3 3 -9 -2 -12 -12z"/>
<path d="M1990 859 c0 -5 5 -7 10 -4 6 3 10 8 10 11 0 2 -4 4 -10 4 -5 0 -10
-5 -10 -11z"/>
<path d="M1790 646 c0 -2 7 -7 16 -10 8 -3 12 -2 9 4 -6 10 -25 14 -25 6z"/>
<path d="M1697 435 c-4 -8 -3 -16 1 -19 4 -3 9 4 9 15 2 23 -3 25 -10 4z"/>
<path d="M1126 326 c7 -19 20 -21 30 -3 4 6 4 9 -1 5 -4 -4 -14 -3 -22 4 -11
8 -12 7 -7 -6z"/>
<path d="M1663 278 c0 -7 -4 -21 -8 -30 -4 -11 -3 -18 4 -18 6 0 11 9 11 21 0
13 4 18 13 13 8 -5 8 -2 -2 9 -16 20 -18 21 -18 5z"/>
<path d="M1005 200 c-3 -5 -1 -10 4 -10 6 0 11 5 11 10 0 6 -2 10 -4 10 -3 0
-8 -4 -11 -10z"/>
<path d="M778 133 c6 -2 9 -10 6 -15 -4 -7 -2 -8 5 -4 13 9 5 26 -12 25 -9 0
-8 -2 1 -6z"/>
</g>
</svg>
